<svg width="149" height="35" viewBox="0 0 149 35" fill="none" xmlns="http://www.w3.org/2000/svg">
<path d="M26.7413 9.38184V30.5745H23.8063V18.973C23.8063 18.973 16.0646 18.973 12.208 18.973C12.208 19.9363 12.208 20.8437 12.208 21.835C15.1288 21.835 17.9646 21.835 20.8713 21.835C20.8713 22.3934 20.8713 22.8541 20.8713 23.3148C20.8713 27.0145 20.8713 30.7281 20.8713 34.4277C20.8713 34.665 20.8854 34.8465 20.9138 34.9861C24.2033 34.4556 27.195 33.0595 29.6338 31.0212C29.6338 28.1174 29.6338 16.6974 29.6338 16.111C29.6196 13.8912 29.1091 11.4201 26.7413 9.38184Z" fill="#FF2E4C"/>
<path d="M20.8574 10.2752H23.7924V3.92302C25.5648 4.29996 32.2714 8.61388 32.5408 15.3849V27.9497C34.7101 25.0179 36.0004 21.416 36.0004 17.507C36.0004 8.68368 29.464 1.36817 20.9 0C20.8716 0.15357 20.8574 0.335062 20.8574 0.572397L20.8574 10.2752Z" fill="#FF2E4C"/>
<path d="M9.25869 25.6043V4.41165H12.1937V16.0132C12.1937 16.0132 19.9353 16.0132 23.792 16.0132C23.792 15.0499 23.792 14.1424 23.792 13.1512C20.8711 13.1512 18.0354 13.1512 15.1287 13.1512C15.1287 12.5927 15.1287 12.132 15.1287 11.6713C15.1287 7.97168 15.1287 4.25808 15.1287 0.558436C15.1287 0.321101 15.1145 0.139609 15.0862 0C11.7967 0.530515 8.80497 1.92661 6.36621 3.9649C6.36621 6.86877 6.36621 18.2888 6.36621 18.8751C6.38039 21.1089 6.89083 23.58 9.25869 25.6043Z" fill="#FF2E4C"/>
<path d="M15.143 24.7243H12.208V31.0765C10.4356 30.6996 3.72903 26.3857 3.45963 19.6146V7.0498C1.29027 9.9816 0 13.5835 0 17.4926C0 26.3159 6.53643 33.6314 15.1004 34.9995C15.1288 34.846 15.143 34.6645 15.143 34.4271V24.7243Z" fill="#FF2E4C"/>
<path d="M46.3516 25.0191V9.20312H48.7114V15.5965H50.828V9.20312H53.1878V25.0191H50.828V17.6645H48.7114V25.0191H46.3516V25.0191Z" fill="white"/>
<path fill-rule="evenodd" clip-rule="evenodd" d="M60.4531 9.20312L58.2363 25.0191H60.5389L60.8679 22.1938H63.3707L63.7425 25.0191H65.945L63.5709 9.20312H60.4531ZM62.0692 12.3055L63.1132 20.2572H61.0824L62.0406 12.3055H62.0692Z" fill="white"/>
<path d="M70.9795 25.0191V9.20312H72.8387L76.1282 18.6986L75.9565 14.3877V9.21769H78.0875V25.0337H76.4142L73.039 15.2033L73.1677 19.3539V25.0191H70.9795V25.0191Z" fill="white"/>
<path d="M83.4795 25.0191V9.20312H85.8393V16.4849L88.1991 9.20312H90.6447L88.0704 17.0092L90.8449 25.0191H88.3421L85.8679 17.6208V25.0046H83.4795V25.0191Z" fill="white"/>
<path fill-rule="evenodd" clip-rule="evenodd" d="M98.5825 25.1947C99.7838 25.1947 100.642 24.816 101.185 24.0587C101.729 23.2868 102.001 22.1363 102.001 20.5926V13.3545C102.001 11.9273 101.743 10.8496 101.214 10.1068C100.685 9.36409 99.8267 9 98.6254 9C96.2942 9 95.1357 10.4564 95.1357 13.3545V20.5926C95.1357 22.1217 95.4075 23.2868 95.9652 24.0441C96.523 24.816 97.3954 25.1947 98.5825 25.1947ZM98.5827 23.1117C98.1536 23.1117 97.8676 22.9224 97.7246 22.5583C97.5959 22.1942 97.5244 21.5534 97.5101 20.6213V13.2376C97.5101 12.4949 97.5959 11.956 97.7532 11.6065C97.9105 11.2715 98.1966 11.0968 98.597 11.0968C98.9975 11.0968 99.2692 11.257 99.4122 11.6065C99.5552 11.956 99.6267 12.5094 99.6267 13.2522V20.6213C99.6267 21.5243 99.5552 22.1651 99.4265 22.5437C99.2978 22.9224 99.0118 23.1117 98.5827 23.1117Z" fill="white"/>
<path d="M116.479 14H121.071C121.999 14 122.724 14.2613 123.247 14.784C123.78 15.3067 124.047 16.0053 124.047 16.88C124.047 17.296 123.988 17.648 123.871 17.936C123.753 18.224 123.604 18.464 123.423 18.656C123.241 18.8373 123.044 18.976 122.831 19.072C122.617 19.1573 122.42 19.216 122.239 19.248V19.344C122.441 19.3547 122.665 19.408 122.911 19.504C123.167 19.6 123.407 19.7547 123.631 19.968C123.855 20.1707 124.041 20.4373 124.191 20.768C124.351 21.088 124.431 21.4773 124.431 21.936C124.431 22.3947 124.356 22.8213 124.207 23.216C124.068 23.6107 123.871 23.952 123.615 24.24C123.359 24.528 123.055 24.7573 122.703 24.928C122.351 25.088 121.967 25.168 121.551 25.168H116.479V14ZM117.823 23.984H121.135C121.711 23.984 122.164 23.84 122.495 23.552C122.825 23.2533 122.991 22.8213 122.991 22.256V21.712C122.991 21.1467 122.825 20.72 122.495 20.432C122.164 20.1333 121.711 19.984 121.135 19.984H117.823V23.984ZM117.823 18.832H120.911C121.444 18.832 121.86 18.6987 122.159 18.432C122.457 18.1653 122.607 17.7813 122.607 17.28V16.736C122.607 16.2347 122.457 15.8507 122.159 15.584C121.86 15.3173 121.444 15.184 120.911 15.184H117.823V18.832Z" fill="white"/>
<path d="M130.085 25.36C129.52 25.36 129.008 25.2587 128.549 25.056C128.101 24.8533 127.712 24.5653 127.381 24.192C127.061 23.808 126.811 23.3547 126.629 22.832C126.459 22.2987 126.373 21.7013 126.373 21.04C126.373 20.3893 126.459 19.7973 126.629 19.264C126.811 18.7307 127.061 18.2773 127.381 17.904C127.712 17.52 128.101 17.2267 128.549 17.024C129.008 16.8213 129.52 16.72 130.085 16.72C130.64 16.72 131.136 16.8213 131.573 17.024C132.011 17.2267 132.384 17.5093 132.693 17.872C133.003 18.224 133.237 18.6453 133.397 19.136C133.568 19.6267 133.653 20.1653 133.653 20.752V21.36H127.717V21.744C127.717 22.096 127.771 22.4267 127.877 22.736C127.995 23.0347 128.155 23.296 128.357 23.52C128.571 23.744 128.827 23.92 129.125 24.048C129.435 24.176 129.781 24.24 130.165 24.24C130.688 24.24 131.141 24.1173 131.525 23.872C131.92 23.6267 132.224 23.2747 132.437 22.816L133.349 23.472C133.083 24.0373 132.667 24.496 132.101 24.848C131.536 25.1893 130.864 25.36 130.085 25.36ZM130.085 17.792C129.733 17.792 129.413 17.856 129.125 17.984C128.837 18.1013 128.587 18.272 128.373 18.496C128.171 18.72 128.011 18.9867 127.893 19.296C127.776 19.5947 127.717 19.9253 127.717 20.288V20.4H132.277V20.224C132.277 19.488 132.075 18.9013 131.669 18.464C131.275 18.016 130.747 17.792 130.085 17.792Z" fill="white"/>
<path d="M137.764 25.168C137.316 25.168 136.975 25.0453 136.74 24.8C136.516 24.544 136.404 24.2133 136.404 23.808V18.032H135.044V16.912H135.812C136.09 16.912 136.276 16.8587 136.372 16.752C136.479 16.6347 136.532 16.4373 136.532 16.16V14.624H137.684V16.912H139.492V18.032H137.684V24.048H139.364V25.168H137.764Z" fill="white"/>
<path d="M147.728 25.168C147.248 25.168 146.901 25.04 146.688 24.784C146.485 24.528 146.357 24.208 146.304 23.824H146.224C146.042 24.336 145.744 24.72 145.328 24.976C144.912 25.232 144.416 25.36 143.84 25.36C142.965 25.36 142.282 25.136 141.792 24.688C141.312 24.24 141.072 23.632 141.072 22.864C141.072 22.0853 141.354 21.488 141.92 21.072C142.496 20.656 143.386 20.448 144.592 20.448H146.224V19.632C146.224 19.0453 146.064 18.5973 145.744 18.288C145.424 17.9787 144.933 17.824 144.272 17.824C143.77 17.824 143.349 17.936 143.008 18.16C142.677 18.384 142.4 18.6827 142.176 19.056L141.408 18.336C141.632 17.888 141.989 17.5093 142.48 17.2C142.97 16.88 143.589 16.72 144.336 16.72C145.338 16.72 146.117 16.9653 146.672 17.456C147.226 17.9467 147.504 18.6293 147.504 19.504V24.048H148.448V25.168H147.728ZM144.048 24.272C144.368 24.272 144.661 24.2347 144.928 24.16C145.194 24.0853 145.424 23.9787 145.616 23.84C145.808 23.7013 145.957 23.5413 146.064 23.36C146.17 23.1787 146.224 22.9813 146.224 22.768V21.408H144.528C143.792 21.408 143.253 21.5147 142.912 21.728C142.581 21.9413 142.416 22.2507 142.416 22.656V22.992C142.416 23.3973 142.56 23.712 142.848 23.936C143.146 24.16 143.546 24.272 144.048 24.272Z" fill="white"/>
</svg>
